<mxfile host="65bd71144e">
    <diagram id="gbBLnyhcDT-Ysne0Q3e3" name="Página-1">
        <mxGraphModel dx="1355" dy="457" grid="1" gridSize="10" guides="1" tooltips="1" connect="1" arrows="1" fold="1" page="1" pageScale="1" pageWidth="827" pageHeight="1169" math="0" shadow="0">
            <root>
                <mxCell id="0"/>
                <mxCell id="1" parent="0"/>
                <mxCell id="5" style="edgeStyle=none;html=1;fontColor=#000000;" edge="1" parent="1" source="2" target="3">
                    <mxGeometry relative="1" as="geometry"/>
                </mxCell>
                <mxCell id="2" value="&lt;h1&gt;&lt;font color=&quot;#000000&quot;&gt;INICIO&lt;/font&gt;&lt;/h1&gt;" style="rounded=1;whiteSpace=wrap;html=1;fillColor=#e51400;fontColor=#ffffff;strokeColor=#470000;strokeWidth=4;" vertex="1" parent="1">
                    <mxGeometry x="230" y="10" width="120" height="60" as="geometry"/>
                </mxCell>
                <mxCell id="6" style="edgeStyle=none;html=1;entryX=0.5;entryY=0;entryDx=0;entryDy=0;fontColor=#000000;" edge="1" parent="1" source="3" target="4">
                    <mxGeometry relative="1" as="geometry"/>
                </mxCell>
                <mxCell id="3" value="&lt;h2&gt;Cant_minutos&lt;/h2&gt;" style="shape=parallelogram;perimeter=parallelogramPerimeter;whiteSpace=wrap;html=1;fixedSize=1;strokeColor=#751F00;strokeWidth=4;fontColor=#000000;fillColor=#fa6800;" vertex="1" parent="1">
                    <mxGeometry x="195" y="110" width="190" height="60" as="geometry"/>
                </mxCell>
                <mxCell id="9" style="edgeStyle=none;html=1;fontColor=#000000;" edge="1" parent="1" source="4">
                    <mxGeometry relative="1" as="geometry">
                        <mxPoint x="90" y="265" as="targetPoint"/>
                    </mxGeometry>
                </mxCell>
                <mxCell id="11" style="edgeStyle=none;html=1;fontColor=#000000;" edge="1" parent="1" source="4">
                    <mxGeometry relative="1" as="geometry">
                        <mxPoint x="480" y="265" as="targetPoint"/>
                    </mxGeometry>
                </mxCell>
                <mxCell id="4" value="&lt;h3&gt;Cant_minutos&amp;nbsp;&lt;/h3&gt;&lt;h3&gt;&lt;span style=&quot;font-family: &amp;quot;Google Sans&amp;quot;, Arial, sans-serif; font-size: 20px; text-align: left; background-color: rgb(206, 220, 4);&quot;&gt;≥ 3&lt;/span&gt;&lt;/h3&gt;" style="rhombus;whiteSpace=wrap;html=1;strokeColor=#635400;strokeWidth=4;fontColor=#000000;fillColor=#e3c800;" vertex="1" parent="1">
                    <mxGeometry x="207.82" y="210" width="164.37" height="110" as="geometry"/>
                </mxCell>
                <mxCell id="10" style="edgeStyle=none;html=1;fontColor=#000000;" edge="1" parent="1" source="7">
                    <mxGeometry relative="1" as="geometry">
                        <mxPoint x="95" y="260" as="targetPoint"/>
                    </mxGeometry>
                </mxCell>
                <mxCell id="17" style="edgeStyle=none;html=1;fontColor=#000000;" edge="1" parent="1" source="7">
                    <mxGeometry relative="1" as="geometry">
                        <mxPoint x="95" y="520" as="targetPoint"/>
                    </mxGeometry>
                </mxCell>
                <mxCell id="7" value="&lt;h3&gt;&lt;font style=&quot;&quot; color=&quot;#000000&quot;&gt;valor_llamada=300+50*(cant_minutos -3)&lt;/font&gt;&lt;/h3&gt;" style="rounded=1;whiteSpace=wrap;html=1;labelBackgroundColor=none;strokeColor=#1F5200;strokeWidth=4;fontColor=#ffffff;fillColor=#60a917;" vertex="1" parent="1">
                    <mxGeometry y="340" width="190" height="60" as="geometry"/>
                </mxCell>
                <mxCell id="12" style="edgeStyle=none;html=1;fontColor=#000000;" edge="1" parent="1" source="8">
                    <mxGeometry relative="1" as="geometry">
                        <mxPoint x="480" y="260" as="targetPoint"/>
                    </mxGeometry>
                </mxCell>
                <mxCell id="19" style="edgeStyle=none;html=1;fontColor=#000000;" edge="1" parent="1" source="8">
                    <mxGeometry relative="1" as="geometry">
                        <mxPoint x="480" y="530" as="targetPoint"/>
                    </mxGeometry>
                </mxCell>
                <mxCell id="8" value="&lt;h3&gt;&lt;font color=&quot;#000000&quot;&gt;valor_llamada=300&lt;/font&gt;&lt;/h3&gt;" style="rounded=1;whiteSpace=wrap;html=1;labelBackgroundColor=none;strokeColor=#1F5200;strokeWidth=4;fontColor=#ffffff;fillColor=#60a917;" vertex="1" parent="1">
                    <mxGeometry x="385" y="340" width="190" height="60" as="geometry"/>
                </mxCell>
                <mxCell id="16" style="edgeStyle=none;html=1;entryX=0.5;entryY=0;entryDx=0;entryDy=0;fontColor=#000000;" edge="1" parent="1" source="13" target="14">
                    <mxGeometry relative="1" as="geometry"/>
                </mxCell>
                <mxCell id="18" style="edgeStyle=none;html=1;fontColor=#000000;" edge="1" parent="1" source="13">
                    <mxGeometry relative="1" as="geometry">
                        <mxPoint x="90" y="520" as="targetPoint"/>
                    </mxGeometry>
                </mxCell>
                <mxCell id="20" style="edgeStyle=none;html=1;fontColor=#000000;" edge="1" parent="1" source="13">
                    <mxGeometry relative="1" as="geometry">
                        <mxPoint x="490" y="520" as="targetPoint"/>
                    </mxGeometry>
                </mxCell>
                <mxCell id="13" value="&lt;h1&gt;&lt;font color=&quot;#000000&quot;&gt;valor_llamada&lt;/font&gt;&lt;/h1&gt;" style="shape=document;whiteSpace=wrap;html=1;boundedLbl=1;labelBackgroundColor=none;strokeColor=#004269;strokeWidth=4;fontColor=#ffffff;fillColor=#1ba1e2;" vertex="1" parent="1">
                    <mxGeometry x="205" y="480" width="180" height="80" as="geometry"/>
                </mxCell>
                <mxCell id="14" value="&lt;h1&gt;&lt;span style=&quot;&quot;&gt;FIN&lt;/span&gt;&lt;/h1&gt;" style="rounded=1;whiteSpace=wrap;html=1;labelBackgroundColor=none;strokeColor=#190033;strokeWidth=4;fontColor=#000000;fillColor=#7F00FF;" vertex="1" parent="1">
                    <mxGeometry x="235" y="630" width="120" height="60" as="geometry"/>
                </mxCell>
                <mxCell id="21" value="&lt;h3&gt;&lt;span style=&quot;background-color: rgb(77, 77, 77);&quot;&gt;False&amp;nbsp; falso&amp;nbsp; no&amp;nbsp;&lt;/span&gt;&lt;/h3&gt;" style="text;strokeColor=none;fillColor=none;align=left;verticalAlign=middle;spacingLeft=4;spacingRight=4;overflow=hidden;points=[[0,0.5],[1,0.5]];portConstraint=eastwest;rotatable=0;whiteSpace=wrap;html=1;rounded=1;labelBackgroundColor=none;strokeWidth=4;fontColor=#FFFFFF;" vertex="1" parent="1">
                    <mxGeometry x="157.82" y="180" width="50" height="80" as="geometry"/>
                </mxCell>
                <mxCell id="22" value="&lt;h3&gt;&lt;span style=&quot;background-color: rgb(77, 77, 77);&quot;&gt;True&amp;nbsp; verdadero&amp;nbsp; si&amp;nbsp;&lt;/span&gt;&lt;/h3&gt;" style="text;strokeColor=none;fillColor=none;align=left;verticalAlign=middle;spacingLeft=4;spacingRight=4;overflow=hidden;points=[[0,0.5],[1,0.5]];portConstraint=eastwest;rotatable=0;whiteSpace=wrap;html=1;rounded=1;labelBackgroundColor=none;strokeWidth=4;fontColor=#FFFFFF;" vertex="1" parent="1">
                    <mxGeometry x="372.19" y="180" width="50" height="80" as="geometry"/>
                </mxCell>
            </root>
        </mxGraphModel>
    </diagram>
</mxfile>